#N canvas 1362 365 511 432 8;
#X obj 20 27 nbx 5 8 1 9999 0 0 \$0-sA \$0-rA empty 0 -8 1 10 -253822
-1 -1 1 256;
#X obj 8 27 cnv 6 6 6 empty empty A 0 4 1 9 -262144 -66577 0;
#X obj 78 57 hradio 8 1 0 7 \$0-spreset \$0-rpreset empty 0 -8 0 10
-262144 -1 -1 0;
#X obj 20 42 nbx 5 8 1 9999 0 0 \$0-sS \$0-rS empty 0 -8 1 10 -253822
-1 -1 1 256;
#X obj 8 42 cnv 6 6 6 empty empty S 0 4 1 9 -262144 -66577 0;
#X obj 89 26 nbx 5 8 0 9999 0 0 \$0-sD \$0-rD empty 0 -8 1 10 -253822
-1 -1 0 256;
#X obj 78 27 cnv 6 6 6 empty empty D 0 4 1 9 -262144 -66577 0;
#X obj 89 41 nbx 5 8 0 9999 0 0 \$0-sR \$0-rR empty 0 -8 1 10 -253822
-1 -1 0 256;
#X obj 78 42 cnv 6 6 6 empty empty R 0 4 1 9 -262144 -66577 0;
#X obj 9 57 hradio 8 1 0 7 \$0-spsbank \$0-rpsbank empty 0 -8 0 10
-262144 -1 -1 0;
#X obj 126 10 bng 8 250 50 0 \$0-spresetsave \$0-rpresetsave empty
17 7 0 10 -261234 -1 -1;
#X obj 420 16 bng 8 250 50 0 \$0-sgraph \$0-rgraph empty 17 7 0 10
-257983 -1 -1;
#X obj 8 10 cnv 6 6 6 empty empty Signal_Envelope 0 4 1 9 -262144 -66577
0;
#N canvas 531 411 329 796 \$0-statesaving 0;
#X obj 1 121 list prepend;
#X obj 58 98 r \$0-spsbank;
#X obj 1 141 route 0 1 2 3 4 5 6;
#X obj 58 161 r \$0-spreset;
#X obj 115 181 r \$0-spsbank;
#N canvas 969 402 369 232 \$0-sortps 0;
#X obj 0 0 inlet;
#X obj 0 22 list prepend;
#X obj 0 209 outlet;
#X obj 87 10 inlet;
#X msg 0 63 A 296 \, D 9 \, S 89 \, R 12 \,;
#X msg 26 105 3;
#X msg 39 125 4;
#X msg 52 145 5;
#X msg 65 166 6;
#X msg 78 187 7;
#X obj 0 42 route 0 1 2 3 4 5 6;
#X msg 13 84 A 0 \, D -2 \, S -54 \, R 0 \,;
#X connect 0 0 1 0;
#X connect 1 0 10 0;
#X connect 3 0 1 1;
#X connect 3 0 10 0;
#X connect 4 0 2 0;
#X connect 5 0 2 0;
#X connect 6 0 2 0;
#X connect 7 0 2 0;
#X connect 8 0 2 0;
#X connect 9 0 2 0;
#X connect 10 0 4 0;
#X connect 10 1 11 0;
#X connect 10 2 5 0;
#X connect 10 3 6 0;
#X connect 10 4 7 0;
#X connect 10 5 8 0;
#X connect 10 6 9 0;
#X connect 11 0 2 0;
#X restore 1 224 pd \$0-sortps;
#X obj 58 202 choosebank 0;
#X obj 71 245 r \$0-spreset;
#X obj 128 265 r \$0-spsbank;
#N canvas 1252 409 127 231 \$0-sortps 0;
#X obj 0 0 inlet;
#X obj 0 22 list prepend;
#X obj 0 209 outlet;
#X obj 87 10 inlet;
#X msg 0 63 1;
#X msg 13 84 2;
#X msg 26 105 3;
#X msg 39 125 4;
#X msg 52 145 5;
#X msg 65 166 6;
#X msg 78 187 7;
#X obj 0 42 route 0 1 2 3 4 5 6;
#X connect 0 0 1 0;
#X connect 1 0 11 0;
#X connect 3 0 1 1;
#X connect 3 0 11 0;
#X connect 4 0 2 0;
#X connect 5 0 2 0;
#X connect 6 0 2 0;
#X connect 7 0 2 0;
#X connect 8 0 2 0;
#X connect 9 0 2 0;
#X connect 10 0 2 0;
#X connect 11 0 4 0;
#X connect 11 1 5 0;
#X connect 11 2 6 0;
#X connect 11 3 7 0;
#X connect 11 4 8 0;
#X connect 11 5 9 0;
#X connect 11 6 10 0;
#X restore 14 308 pd \$0-sortps;
#X obj 71 286 choosebank 1;
#X obj 84 330 r \$0-spreset;
#X obj 141 350 r \$0-spsbank;
#N canvas 1252 409 127 231 \$0-sortps 0;
#X obj 0 0 inlet;
#X obj 0 22 list prepend;
#X obj 0 209 outlet;
#X obj 87 10 inlet;
#X msg 0 63 1;
#X msg 13 84 2;
#X msg 26 105 3;
#X msg 39 125 4;
#X msg 52 145 5;
#X msg 65 166 6;
#X msg 78 187 7;
#X obj 0 42 route 0 1 2 3 4 5 6;
#X connect 0 0 1 0;
#X connect 1 0 11 0;
#X connect 3 0 1 1;
#X connect 3 0 11 0;
#X connect 4 0 2 0;
#X connect 5 0 2 0;
#X connect 6 0 2 0;
#X connect 7 0 2 0;
#X connect 8 0 2 0;
#X connect 9 0 2 0;
#X connect 10 0 2 0;
#X connect 11 0 4 0;
#X connect 11 1 5 0;
#X connect 11 2 6 0;
#X connect 11 3 7 0;
#X connect 11 4 8 0;
#X connect 11 5 9 0;
#X connect 11 6 10 0;
#X restore 27 393 pd \$0-sortps;
#X obj 97 415 r \$0-spreset;
#X obj 154 435 r \$0-spsbank;
#N canvas 1252 409 127 231 \$0-sortps 0;
#X obj 0 0 inlet;
#X obj 0 22 list prepend;
#X obj 0 209 outlet;
#X obj 87 10 inlet;
#X msg 0 63 1;
#X msg 13 84 2;
#X msg 26 105 3;
#X msg 39 125 4;
#X msg 52 145 5;
#X msg 65 166 6;
#X msg 78 187 7;
#X obj 0 42 route 0 1 2 3 4 5 6;
#X connect 0 0 1 0;
#X connect 1 0 11 0;
#X connect 3 0 1 1;
#X connect 3 0 11 0;
#X connect 4 0 2 0;
#X connect 5 0 2 0;
#X connect 6 0 2 0;
#X connect 7 0 2 0;
#X connect 8 0 2 0;
#X connect 9 0 2 0;
#X connect 10 0 2 0;
#X connect 11 0 4 0;
#X connect 11 1 5 0;
#X connect 11 2 6 0;
#X connect 11 3 7 0;
#X connect 11 4 8 0;
#X connect 11 5 9 0;
#X connect 11 6 10 0;
#X restore 40 478 pd \$0-sortps;
#X obj 110 500 r \$0-spreset;
#X obj 167 520 r \$0-spsbank;
#N canvas 1252 409 127 231 \$0-sortps 0;
#X obj 0 0 inlet;
#X obj 0 22 list prepend;
#X obj 0 209 outlet;
#X obj 87 10 inlet;
#X msg 0 63 1;
#X msg 13 84 2;
#X msg 26 105 3;
#X msg 39 125 4;
#X msg 52 145 5;
#X msg 65 166 6;
#X msg 78 187 7;
#X obj 0 42 route 0 1 2 3 4 5 6;
#X connect 0 0 1 0;
#X connect 1 0 11 0;
#X connect 3 0 1 1;
#X connect 3 0 11 0;
#X connect 4 0 2 0;
#X connect 5 0 2 0;
#X connect 6 0 2 0;
#X connect 7 0 2 0;
#X connect 8 0 2 0;
#X connect 9 0 2 0;
#X connect 10 0 2 0;
#X connect 11 0 4 0;
#X connect 11 1 5 0;
#X connect 11 2 6 0;
#X connect 11 3 7 0;
#X connect 11 4 8 0;
#X connect 11 5 9 0;
#X connect 11 6 10 0;
#X restore 53 563 pd \$0-sortps;
#X obj 123 585 r \$0-spreset;
#X obj 180 605 r \$0-spsbank;
#N canvas 1252 409 127 231 \$0-sortps 0;
#X obj 0 0 inlet;
#X obj 0 22 list prepend;
#X obj 0 209 outlet;
#X obj 87 10 inlet;
#X msg 0 63 1;
#X msg 13 84 2;
#X msg 26 105 3;
#X msg 39 125 4;
#X msg 52 145 5;
#X msg 65 166 6;
#X msg 78 187 7;
#X obj 0 42 route 0 1 2 3 4 5 6;
#X connect 0 0 1 0;
#X connect 1 0 11 0;
#X connect 3 0 1 1;
#X connect 3 0 11 0;
#X connect 4 0 2 0;
#X connect 5 0 2 0;
#X connect 6 0 2 0;
#X connect 7 0 2 0;
#X connect 8 0 2 0;
#X connect 9 0 2 0;
#X connect 10 0 2 0;
#X connect 11 0 4 0;
#X connect 11 1 5 0;
#X connect 11 2 6 0;
#X connect 11 3 7 0;
#X connect 11 4 8 0;
#X connect 11 5 9 0;
#X connect 11 6 10 0;
#X restore 66 648 pd \$0-sortps;
#X obj 84 371 choosebank 2;
#X obj 97 456 choosebank 3;
#X obj 110 541 choosebank 4;
#X obj 123 626 choosebank 5;
#X obj 136 670 r \$0-spreset;
#X obj 193 690 r \$0-spsbank;
#N canvas 1252 409 127 231 \$0-sortps 0;
#X obj 0 0 inlet;
#X obj 0 22 list prepend;
#X obj 0 209 outlet;
#X obj 87 10 inlet;
#X msg 0 63 1;
#X msg 13 84 2;
#X msg 26 105 3;
#X msg 39 125 4;
#X msg 52 145 5;
#X msg 65 166 6;
#X msg 78 187 7;
#X obj 0 42 route 0 1 2 3 4 5 6;
#X connect 0 0 1 0;
#X connect 1 0 11 0;
#X connect 3 0 1 1;
#X connect 3 0 11 0;
#X connect 4 0 2 0;
#X connect 5 0 2 0;
#X connect 6 0 2 0;
#X connect 7 0 2 0;
#X connect 8 0 2 0;
#X connect 9 0 2 0;
#X connect 10 0 2 0;
#X connect 11 0 4 0;
#X connect 11 1 5 0;
#X connect 11 2 6 0;
#X connect 11 3 7 0;
#X connect 11 4 8 0;
#X connect 11 5 9 0;
#X connect 11 6 10 0;
#X restore 79 733 pd \$0-sortps;
#X obj 136 711 choosebank 6;
#X msg 1 35 save;
#X msg 1 35 save;
#X obj 1 754 prepend load;
#X obj 1 14 r \$0-spresetsave;
#X obj 1 77 my.hero.mmb \$0-adsr;
#X obj 8 56 r \$0-load-adsr;
#X obj 1 775 s \$0-load-adsr;
#X floatatom 270 14 5 0 0 0 - - -;
#X obj 211 14 r \$0-sA;
#X obj 211 58 s \$0-rA;
#X floatatom 271 79 5 0 0 0 - - -;
#X floatatom 272 145 5 0 0 0 - - -;
#X floatatom 272 211 5 0 0 0 - - -;
#X obj 212 79 r \$0-sD;
#X obj 212 123 s \$0-rD;
#X obj 213 189 s \$0-rS;
#X obj 213 145 r \$0-sS;
#X obj 213 211 r \$0-sR;
#X obj 213 255 s \$0-rR;
#X obj 213 233 save.me.mmb R \$0-adsr;
#X obj 213 167 save.me.mmb S \$0-adsr;
#X obj 212 101 save.me.mmb D \$0-adsr;
#X obj 211 36 save.me.mmb A \$0-adsr;
#X floatatom 90 127 5 0 0 0 - - -;
#X connect 0 0 2 0;
#X connect 1 0 0 1;
#X connect 1 0 54 0;
#X connect 2 0 5 0;
#X connect 2 1 9 0;
#X connect 2 2 13 0;
#X connect 2 3 16 0;
#X connect 2 4 19 0;
#X connect 2 5 22 0;
#X connect 2 6 29 0;
#X connect 3 0 6 0;
#X connect 4 0 6 1;
#X connect 5 0 33 0;
#X connect 6 0 5 1;
#X connect 7 0 10 0;
#X connect 8 0 10 1;
#X connect 9 0 33 0;
#X connect 10 0 9 1;
#X connect 11 0 23 0;
#X connect 12 0 23 1;
#X connect 13 0 33 0;
#X connect 14 0 24 0;
#X connect 15 0 24 1;
#X connect 16 0 33 0;
#X connect 17 0 25 0;
#X connect 18 0 25 1;
#X connect 19 0 33 0;
#X connect 20 0 26 0;
#X connect 21 0 26 1;
#X connect 22 0 33 0;
#X connect 23 0 13 1;
#X connect 24 0 16 1;
#X connect 25 0 19 1;
#X connect 26 0 22 1;
#X connect 27 0 30 0;
#X connect 28 0 30 1;
#X connect 29 0 33 0;
#X connect 30 0 29 1;
#X connect 31 0 35 0;
#X connect 33 0 37 0;
#X connect 34 0 31 0;
#X connect 35 0 0 0;
#X connect 36 0 35 0;
#X connect 39 0 38 0;
#X connect 39 0 53 0;
#X connect 44 0 41 0;
#X connect 44 0 52 0;
#X connect 47 0 42 0;
#X connect 47 0 51 0;
#X connect 48 0 43 0;
#X connect 48 0 50 0;
#X connect 50 0 49 0;
#X connect 51 0 46 0;
#X connect 52 0 45 0;
#X connect 53 0 40 0;
#X restore 0 80 pd \$0-statesaving;
#N canvas 0 22 450 300 (subpatch) 0;
#X array \$0-see-env 22050 float 0;
#X coords 0 1 22049 -1 150 100 1;
#X restore 280 28 graph;
#X text 333 131 500ms;
#X text 431 69 0;
#X text 431 21 1;
#X text 427 121 -1;
#X msg 167 64 1;
#X msg 198 63 0;
#X obj 197 42 delay 200;
#X obj 150 22 t b b b;
#X obj 167 106 tabwrite~ \$0-see-env;
#N canvas 762 312 231 720 \$0-adsr 0;
#X obj 13 372 f;
#X obj 14 698 outlet~;
#X obj 26 302 pack 0 0;
#X obj 26 281 f;
#X obj 26 214 delay;
#X obj 26 236 t b b;
#X obj 136 134 pack 0 0;
#X msg 152 189 stop;
#X obj 136 67 t b b b;
#X msg 136 156 \$1 \, 0 \$2;
#X obj 35 457 vline~;
#X obj 136 89 snapshot~;
#X obj 14 678 lop~ 100;
#X obj 51 657 line 0 1;
#X obj 51 615 pack 0 0;
#X obj 63 527 r \$0-decay;
#X obj 64 550 expr 1000/$f1;
#X obj 52 592 f;
#X obj 13 35 sel 1 0;
#X obj 13 13 inlet;
#X obj 13 435 t b a;
#X msg 13 486 1;
#X obj 65 151 delay;
#X msg 65 172 0;
#X obj 13 507 switch~;
#X obj 13 65 t b b b b b;
#X obj 87 109 + 5;
#X msg 65 107 stop;
#X msg 13 414 \$2 \, 1 \$1;
#X obj 13 393 pack 0 0;
#X obj 39 323 snapshot~;
#X msg 51 636 50 \, \$1 \$2;
#X obj 25 350 r \$0-sA;
#X obj 88 594 r \$0-sA;
#X obj 48 193 r \$0-sA;
#X obj 87 87 r \$0-sR;
#X obj 173 111 r \$0-sR;
#X obj 63 280 r \$0-sD;
#X obj 38 260 r \$0-sS;
#X connect 0 0 29 0;
#X connect 2 0 10 0;
#X connect 3 0 2 0;
#X connect 4 0 5 0;
#X connect 5 0 3 0;
#X connect 6 0 9 0;
#X connect 7 0 4 0;
#X connect 8 0 11 0;
#X connect 8 1 7 0;
#X connect 9 0 10 0;
#X connect 10 0 11 0;
#X connect 10 0 12 0;
#X connect 11 0 6 0;
#X connect 12 0 1 0;
#X connect 12 0 30 0;
#X connect 13 0 12 1;
#X connect 14 0 31 0;
#X connect 15 0 16 0;
#X connect 16 0 17 1;
#X connect 17 0 14 0;
#X connect 18 0 25 0;
#X connect 18 1 8 0;
#X connect 18 1 22 0;
#X connect 19 0 18 0;
#X connect 20 0 21 0;
#X connect 20 1 10 0;
#X connect 21 0 24 0;
#X connect 22 0 23 0;
#X connect 25 0 0 0;
#X connect 25 1 4 0;
#X connect 25 2 30 0;
#X connect 25 3 17 0;
#X connect 25 4 27 0;
#X connect 25 4 7 0;
#X connect 26 0 22 1;
#X connect 27 0 22 0;
#X connect 28 0 20 0;
#X connect 29 0 28 0;
#X connect 30 0 29 1;
#X connect 31 0 13 0;
#X connect 32 0 0 1;
#X connect 33 0 14 1;
#X connect 34 0 4 1;
#X connect 35 0 26 0;
#X connect 36 0 6 1;
#X connect 37 0 2 1;
#X connect 38 0 3 1;
#X restore 167 85 pd \$0-adsr;
#X obj 150 0 r \$0-sgraph;
#X obj 1 99 inlet;
#X obj 1 142 outlet~;
#N canvas 762 312 231 720 \$0-adsr 0;
#X obj 13 372 f;
#X obj 14 698 outlet~;
#X obj 26 302 pack 0 0;
#X obj 26 281 f;
#X obj 26 214 delay;
#X obj 26 236 t b b;
#X obj 136 134 pack 0 0;
#X msg 152 189 stop;
#X obj 136 67 t b b b;
#X msg 136 156 \$1 \, 0 \$2;
#X obj 35 457 vline~;
#X obj 136 89 snapshot~;
#X obj 14 678 lop~ 100;
#X obj 51 657 line 0 1;
#X obj 51 615 pack 0 0;
#X obj 63 527 r \$0-decay;
#X obj 64 550 expr 1000/$f1;
#X obj 52 592 f;
#X obj 13 35 sel 1 0;
#X obj 13 13 inlet;
#X obj 13 435 t b a;
#X msg 13 486 1;
#X obj 65 151 delay;
#X msg 65 172 0;
#X obj 13 507 switch~;
#X obj 13 65 t b b b b b;
#X obj 87 109 + 5;
#X msg 65 107 stop;
#X msg 13 414 \$2 \, 1 \$1;
#X obj 13 393 pack 0 0;
#X obj 39 323 snapshot~;
#X msg 51 636 50 \, \$1 \$2;
#X obj 25 350 r \$0-sA;
#X obj 88 594 r \$0-sA;
#X obj 48 193 r \$0-sA;
#X obj 87 87 r \$0-sR;
#X obj 173 111 r \$0-sR;
#X obj 63 280 r \$0-sD;
#X obj 38 260 r \$0-sS;
#X connect 0 0 29 0;
#X connect 2 0 10 0;
#X connect 3 0 2 0;
#X connect 4 0 5 0;
#X connect 5 0 3 0;
#X connect 6 0 9 0;
#X connect 7 0 4 0;
#X connect 8 0 11 0;
#X connect 8 1 7 0;
#X connect 9 0 10 0;
#X connect 10 0 11 0;
#X connect 10 0 12 0;
#X connect 11 0 6 0;
#X connect 12 0 1 0;
#X connect 12 0 30 0;
#X connect 13 0 12 1;
#X connect 14 0 31 0;
#X connect 15 0 16 0;
#X connect 16 0 17 1;
#X connect 17 0 14 0;
#X connect 18 0 25 0;
#X connect 18 1 8 0;
#X connect 18 1 22 0;
#X connect 19 0 18 0;
#X connect 20 0 21 0;
#X connect 20 1 10 0;
#X connect 21 0 24 0;
#X connect 22 0 23 0;
#X connect 25 0 0 0;
#X connect 25 1 4 0;
#X connect 25 2 30 0;
#X connect 25 3 17 0;
#X connect 25 4 27 0;
#X connect 25 4 7 0;
#X connect 26 0 22 1;
#X connect 27 0 22 0;
#X connect 28 0 20 0;
#X connect 29 0 28 0;
#X connect 30 0 29 1;
#X connect 31 0 13 0;
#X connect 32 0 0 1;
#X connect 33 0 14 1;
#X connect 34 0 4 1;
#X connect 35 0 26 0;
#X connect 36 0 6 1;
#X connect 37 0 2 1;
#X connect 38 0 3 1;
#X restore 1 121 pd \$0-adsr;
#X text 3 195 Does this work? Test;
#X connect 19 0 24 0;
#X connect 20 0 24 0;
#X connect 21 0 20 0;
#X connect 22 0 23 0;
#X connect 22 1 19 0;
#X connect 22 2 21 0;
#X connect 24 0 23 0;
#X connect 25 0 22 0;
#X connect 26 0 28 0;
#X connect 28 0 27 0;
#X coords 0 -1 1 1 146 75 2 0 0;
