#N canvas 1068 462 74 257 8;
#X obj 8 159 sel 0 1;
#X obj 24 202 outlet;
#X obj 20 116 f \$1;
#X obj 20 95 loadbang;
#X obj 8 138 ==;
#X obj 8 11 inlet;
#X floatatom 17 234 5 0 0 0 - - -;
#X obj 8 33 t b f b;
#X obj 8 74 f;
#X obj 24 181 f;
#X obj 20 53 inlet;
#X connect 0 1 9 0;
#X connect 2 0 4 1;
#X connect 3 0 2 0;
#X connect 4 0 0 0;
#X connect 5 0 7 0;
#X connect 7 0 8 0;
#X connect 7 1 9 1;
#X connect 7 2 2 0;
#X connect 8 0 4 0;
#X connect 9 0 1 0;
#X connect 9 0 6 0;
#X connect 10 0 8 1;
