#N canvas 468 209 876 803 8;
#X obj 9 11 bng 8 250 50 0 \$0-srec \$0-rrec empty 17 7 0 10 -262144
-33289 -33289;
#X msg 21 241 start;
#X msg 5 262 stop;
#X obj 5 323 writesf~ 2;
#X obj 21 202 t b b;
#N canvas 659 437 149 345 \$0-opennew 0;
#X obj 4 -12 inlet;
#X obj 4 310 outlet;
#X obj 4 136 date;
#X obj 26 29 time;
#X obj 26 49 pack f f f;
#X obj 4 157 pack f f f;
#X obj 4 9 t b b;
#X msg 26 70 symbol \$1-\$2-\$3;
#X msg 4 179 symbol \$1.\$2.\$3;
#X obj 14 288 print;
#X symbolatom 26 91 10 0 0 0 - - -;
#X symbolatom 4 200 10 0 0 0 - - -;
#X obj 4 244 pack s s;
#X obj 35 112 s \$0-rectime;
#X obj 13 222 s \$0-recdate;
#X msg 4 266 open -bytes 4 ./REC/\$1_\$2;
#X connect 0 0 6 0;
#X connect 2 0 5 0;
#X connect 2 1 5 1;
#X connect 2 2 5 2;
#X connect 3 0 4 0;
#X connect 3 1 4 1;
#X connect 3 2 4 2;
#X connect 4 0 7 0;
#X connect 5 0 8 0;
#X connect 6 0 2 0;
#X connect 6 1 3 0;
#X connect 7 0 10 0;
#X connect 8 0 11 0;
#X connect 10 0 12 1;
#X connect 10 0 13 0;
#X connect 11 0 12 0;
#X connect 11 0 14 0;
#X connect 12 0 15 0;
#X connect 15 0 1 0;
#X connect 15 0 9 0;
#X restore 43 222 pd \$0-opennew;
#X obj 5 162 r \$0-rec-value;
#X obj 5 182 sel 0 1;
#X obj 5 123 inlet~;
#X obj 65 123 inlet~;
#X obj 5 142 s~ \$0-left;
#X obj 65 142 s~ \$0-right;
#X obj 5 303 r~ \$0-left;
#X obj 52 282 r~ \$0-right;
#X obj 28 12 cnv 6 6 6 \$0-sreclabel \$0-rreclabel Record 0 4 1 9 -262144
-33289 0;
#N canvas 152 330 192 453 \$0-canvas 0;
#X obj -2 24 f 0;
#X obj 31 24 + 1;
#X floatatom 8 67 5 0 0 0 - - -;
#X obj -2 88 s \$0-rec-value;
#X obj -2 109 r \$0-rec-value;
#X obj -2 400 pack \$0;
#X obj -2 2 r \$0-srec;
#X msg -2 422 \; \$1-rrec color 13 12 12;
#X obj 14 227 pack \$0;
#X msg 14 248 \; \$1-rrec color 0 12 12;
#X obj -2 45 mod 2;
#X obj 20 347 pack \$0 s s;
#X obj 72 303 r \$0-rectime;
#X obj 46 325 r \$0-recdate;
#X msg 20 368 \; \$1-rreclabel label \$2_\$3;
#X obj -2 282 t b b;
#X obj 14 152 t b b;
#X obj 36 174 pack \$0;
#X msg 36 195 \; \$1-rreclabel label Record;
#X obj -2 130 sel 1 0;
#X connect 0 0 1 0;
#X connect 0 0 10 0;
#X connect 1 0 0 1;
#X connect 4 0 19 0;
#X connect 5 0 7 0;
#X connect 6 0 0 0;
#X connect 8 0 9 0;
#X connect 10 0 2 0;
#X connect 10 0 3 0;
#X connect 11 0 14 0;
#X connect 12 0 11 2;
#X connect 13 0 11 1;
#X connect 15 0 5 0;
#X connect 15 1 11 0;
#X connect 16 0 8 0;
#X connect 16 1 17 0;
#X connect 17 0 18 0;
#X connect 19 0 15 0;
#X connect 19 1 16 0;
#X restore 145 122 pd \$0-canvas;
#X connect 1 0 3 0;
#X connect 2 0 3 0;
#X connect 4 0 1 0;
#X connect 4 1 5 0;
#X connect 5 0 3 0;
#X connect 6 0 7 0;
#X connect 7 0 2 0;
#X connect 7 1 4 0;
#X connect 8 0 10 0;
#X connect 9 0 11 0;
#X connect 12 0 3 0;
#X connect 13 0 3 1;
#X coords 0 -1 1 1 114 30 2 0 0;
